Patient4_TMGait_0pt4_02_right_11_GRF.mot
version=1
nRows=72
nColumns=19
inDegrees=no
endheader
time	F1x	F1y	F1z	M1x	M1y	M1z	F2x	F2y	F2z	M2x	M2y	M2z	EC1x	EC1y	EC1z	EC2x	EC2y	EC2z
14.02	-23.2823	765.8363	61.0097	-240.1455	-77.6949	874.6076	5.7324	-24.4121	11.2705	-7.3832	-10.4367	-30.7008	-0.0592	0.0182	-0.0073	-0.0462	0.0165	0.9585
14.0335	-20.2741	758.5911	64.0887	-237.4768	-78.9771	865.2681	3.7523	-14.5547	7.377	-4.295	-6.7666	-18.433	-0.0592	0.0182	-0.0073	-0.0462	0.0165	0.9585
14.047	-17.1571	751.3522	66.0587	-234.9638	-79.1413	855.2042	2.0488	-6.2845	4.0919	-1.6908	-3.6645	-8.1242	-0.0592	0.0182	-0.0073	-0.0462	0.0165	0.9585
14.0605	-14.0623	744.9772	66.8928	-232.9195	-78.2271	845.3758	0.72103	-0.020182	1.6051	0.29087	-1.3084	-0.30353	-0.0592	0.0182	-0.0073	-0.0462	0.0165	0.9585
14.074	-11.0226	740.2017	66.7683	-231.5841	-76.4263	836.6781	-0.22912	4.3	-0.10496	1.6632	0.32225	5.0962	-0.0592	0.0182	-0.0073	-0.0462	0.0165	0.9585
14.0875	-8.0359	737.4933	65.9466	-231.0915	-73.9859	829.7301	-0.83933	6.9629	-1.157	2.5138	1.3342	8.4212	-0.0592	0.0182	-0.0073	-0.0462	0.0165	0.9585
14.101	-5.0834	737.0118	64.702	-231.4608	-71.1528	824.8079	-1.2191	8.3469	-1.7122	2.9579	1.8876	10.1552	-0.0592	0.0182	-0.0073	-0.0462	0.0165	0.9585
14.1145	-2.1228	738.618	63.2398	-232.6073	-68.1012	821.8508	-1.4314	8.7958	-1.9237	3.1028	2.1239	10.7173	-0.0592	0.0182	-0.0073	-0.0462	0.0165	0.9585
14.128	0.8802	741.9124	61.7467	-234.3561	-64.9912	820.516	-1.5579	8.6105	-1.9356	3.0369	2.1839	10.4901	-0.0592	0.0182	-0.0073	-0.0462	0.0165	0.9585
14.1415	3.9575	746.3597	60.3313	-236.4854	-61.9194	820.3004	-1.6501	7.9803	-1.8456	2.8142	2.1633	9.7077	-0.0592	0.0182	-0.0073	-0.0462	0.0165	0.9585
14.155	7.0995	751.389	59.1038	-238.7575	-58.9999	820.6779	-1.7395	6.9971	-1.728	2.4565	2.1339	8.4884	-0.0592	0.0182	-0.0073	-0.0462	0.0165	0.9585
14.1685	10.2887	756.487	58.1123	-240.9602	-56.301	821.1885	-1.8451	5.708	-1.6243	1.9695	2.1286	6.8941	-0.0592	0.0182	-0.0073	-0.0462	0.0165	0.9585
14.182	13.4409	761.2476	57.4201	-242.9198	-53.9265	821.5206	-1.9234	4.1059	-1.5569	1.3471	2.1435	4.9066	-0.0592	0.0182	-0.0073	-0.0462	0.0165	0.9585
14.1955	16.4667	765.3478	57.0591	-244.4933	-51.9578	821.4276	-1.941	2.2214	-1.517	0.60037	2.1411	2.5733	-0.0592	0.0182	-0.0073	-0.0462	0.0165	0.9585
14.209	19.2777	768.4545	57.0695	-245.5447	-50.4825	820.6455	-1.7956	0.15525	-1.4804	-0.22597	2.0477	0.019867	-0.0592	0.0182	-0.0073	-0.0462	0.0165	0.9585
14.2225	21.8064	770.1358	57.4583	-245.9216	-49.5414	818.7868	-1.3578	-1.8259	-1.4038	-1.0203	1.7602	-2.4206	-0.0592	0.0182	-0.0073	-0.0462	0.0165	0.9585
14.236	24.0378	769.9278	58.216	-245.475	-49.1394	815.3859	-0.48196	-3.2411	-1.2239	-1.5799	1.1492	-4.1615	-0.0592	0.0182	-0.0073	-0.0462	0.0165	0.9585
14.2495	25.9732	767.504	59.283	-244.1146	-49.2173	810.0976	1.0174	-3.3244	-0.86593	-1.5847	0.061963	-4.2833	-0.0592	0.0182	-0.0073	-0.0462	0.0165	0.9585
14.263	27.6788	762.7803	60.5929	-241.839	-49.6866	802.811	3.2923	-0.93553	-0.24844	-0.56822	-1.6453	-1.3919	-0.0592	0.0182	-0.0073	-0.0462	0.0165	0.9585
14.2765	29.2251	755.9058	62.0578	-238.7287	-50.4291	793.6472	6.4379	5.3712	0.69644	2.0668	-4.0749	6.2837	-0.0592	0.0182	-0.0073	-0.0462	0.0165	0.9585
14.29	30.6982	747.1775	63.564	-234.921	-51.2965	782.8662	10.3653	17.2808	2.0094	7.0117	-7.2254	20.8233	-0.0592	0.0182	-0.0073	-0.0462	0.0165	0.9585
14.3035	32.1565	736.8355	64.935	-230.5482	-52.086	770.6568	14.728	36.4822	3.6504	14.9539	-10.889	44.3119	-0.0592	0.0182	-0.0073	-0.0462	0.0165	0.9585
14.317	33.6103	724.8862	65.9444	-225.6732	-52.5642	756.9869	18.7675	64.1967	5.4604	26.385	-14.544	78.263	-0.0592	0.0182	-0.0073	-0.0462	0.0165	0.9585
14.3305	35.0496	710.953	66.31	-220.2417	-52.4523	741.4277	21.1174	100.4774	7.0882	41.3084	-17.1993	122.7766	-0.0592	0.0182	-0.0073	-0.0462	0.0165	0.9585
14.344	36.3936	694.241	65.7721	-214.0616	-51.5182	723.1466	19.9481	143.3859	7.93	58.9013	-17.3934	175.5291	-0.0592	0.0182	-0.0073	-0.0462	0.0165	0.9585
14.3575	37.5114	673.6622	64.1035	-206.8428	-49.5778	701.0105	14.3516	189.1369	7.2083	77.5423	-13.8592	231.9993	-0.0592	0.0182	-0.0073	-0.0462	0.0165	0.9585
14.371	38.2589	648.1238	61.2469	-198.2797	-46.6173	673.8803	5.6193	233.0618	4.5236	95.264	-6.7206	286.4537	-0.0592	0.0182	-0.0073	-0.0462	0.0165	0.9585
14.3845	38.5029	616.765	57.3189	-188.1213	-42.793	640.8604	-4.1233	271.5642	0.13581	110.5892	2.8018	334.2581	-0.0592	0.0182	-0.0073	-0.0462	0.0165	0.9585
14.398	38.1105	579.0657	52.5785	-176.2025	-38.395	601.409	-13.4497	303.9516	-5.3667	123.2509	13.3882	374.3679	-0.0592	0.0182	-0.0073	-0.0462	0.0165	0.9585
14.4115	36.9798	535.0792	47.2891	-162.521	-33.71	555.5814	-21.6118	332.0625	-11.1642	134.0426	23.778	408.8969	-0.0592	0.0182	-0.0073	-0.0462	0.0165	0.9585
14.425	35.0436	485.4655	41.6747	-147.2539	-28.9711	504.0579	-28.3659	358.7453	-16.7351	144.1759	33.2467	441.2402	-0.0592	0.0182	-0.0073	-0.0462	0.0165	0.9585
14.4385	32.2433	431.4341	35.8987	-130.7433	-24.3484	448.0776	-33.5811	386.9494	-21.7641	154.893	41.3972	474.8386	-0.0592	0.0182	-0.0073	-0.0462	0.0165	0.9585
14.452	28.5225	374.5875	30.1178	-113.4502	-20.003	389.276	-37.15	419.2571	-26.3784	167.2571	48.3518	512.6524	-0.0592	0.0182	-0.0073	-0.0462	0.0165	0.9585
14.4655	23.9053	316.7791	24.5391	-95.9091	-16.1238	329.5445	-39.0984	457.3966	-30.8682	181.9658	54.4811	556.6507	-0.0592	0.0182	-0.0073	-0.0462	0.0165	0.9585
14.479	18.5097	260.0433	19.3679	-78.7127	-12.872	270.9638	-39.5683	501.6935	-35.5977	199.1441	60.2682	607.1815	-0.0592	0.0182	-0.0073	-0.0462	0.0165	0.9585
14.4925	12.6074	206.4743	14.8016	-62.4791	-10.3535	215.6617	-38.8464	550.935	-40.7951	218.2963	66.0801	662.8228	-0.0592	0.0182	-0.0073	-0.0462	0.0165	0.9585
14.506	6.6677	158.0244	10.946	-47.7943	-8.5281	165.6079	-37.2829	602.6922	-46.4441	238.455	72.0169	720.7525	-0.0592	0.0182	-0.0073	-0.0462	0.0165	0.9585
14.5195	1.2569	116.1611	7.8429	-35.1037	-7.2594	122.2748	-35.225	653.9513	-52.2459	258.4382	77.8556	777.514	-0.0592	0.0182	-0.0073	-0.0462	0.0165	0.9585
14.533	-3.0888	81.5644	5.4358	-24.6185	-6.3265	86.3306	-32.9533	701.6327	-57.7208	277.0508	83.1487	829.6146	-0.0592	0.0182	-0.0073	-0.0462	0.0165	0.9585
14.5465	-6.044	54.1177	3.6222	-16.3062	-5.5224	57.6666	-30.636	742.9485	-62.4344	293.2155	87.4556	873.9331	-0.0592	0.0182	-0.0073	-0.0462	0.0165	0.9585
14.56	-7.4739	33.1994	2.2736	-9.9823	-4.6782	35.677	-28.3697	775.7721	-66.0407	306.1097	90.4234	908.1392	-0.0592	0.0182	-0.0073	-0.0462	0.0165	0.9585
14.5735	-7.4644	17.9869	1.2839	-5.3971	-3.7197	19.5699	-26.2307	798.8606	-68.3859	315.247	91.9154	930.9465	-0.0592	0.0182	-0.0073	-0.0462	0.0165	0.9585
14.587	-6.374	7.6295	0.58407	-2.2901	-2.6961	8.5181	-24.3007	811.963	-69.4473	320.519	91.9513	942.2243	-0.0592	0.0182	-0.0073	-0.0462	0.0165	0.9585
14.6005	-4.7887	1.2685	0.13352	-0.39518	-1.7531	1.6674	-22.6594	815.8234	-69.3488	322.1918	90.713	942.9802	-0.0592	0.0182	-0.0073	-0.0462	0.0165	0.9585
14.614	-3.1655	-2.0538	-0.11359	0.58323	-0.98845	-1.9548	-21.3622	812.0846	-68.2949	320.8708	88.472	935.2198	-0.0592	0.0182	-0.0073	-0.0462	0.0165	0.9585
14.6275	-1.7496	-3.2698	-0.21785	0.93022	-0.4219	-3.3179	-20.4377	803.0903	-66.5765	317.4268	85.5864	921.7084	-0.0592	0.0182	-0.0073	-0.0462	0.0165	0.9585
14.641	-0.64777	-3.1796	-0.22378	0.8879	-0.04393	-3.2696	-19.8778	791.5114	-64.506	312.8555	82.4272	905.5351	-0.0592	0.0182	-0.0073	-0.0462	0.0165	0.9585
14.6545	0.12901	-2.3986	-0.17804	0.64093	0.18209	-2.4576	-19.6369	779.8678	-62.4071	308.0942	79.3529	889.575	-0.0592	0.0182	-0.0073	-0.0462	0.0165	0.9585
14.668	0.6218	-1.3607	-0.10976	0.31858	0.29362	-1.3422	-19.6317	770.1443	-60.5724	303.8782	76.6627	876.0509	-0.0592	0.0182	-0.0073	-0.0462	0.0165	0.9585
14.6815	0.89601	-0.32284	-0.043718	-0.0020139	0.32881	-0.20241	-19.7463	763.5719	-59.2602	300.6588	74.599	866.2903	-0.0592	0.0182	-0.0073	-0.0462	0.0165	0.9585
14.695	1.0198	0.57742	0.0046363	-0.28055	0.32323	0.80372	-19.8609	760.582	-58.66	298.5895	73.3215	860.697	-0.0592	0.0182	-0.0073	-0.0462	0.0165	0.9585
14.7085	1.0468	1.2899	0.039427	-0.50238	0.29302	1.6072	-19.8629	760.8915	-58.8504	297.5678	72.8703	858.8695	-0.0592	0.0182	-0.0073	-0.0462	0.0165	0.9585
14.722	1.018	1.8211	0.056512	-0.66922	0.25722	2.2098	-19.6591	763.7373	-59.775	297.3335	73.1463	859.8716	-0.0592	0.0182	-0.0073	-0.0462	0.0165	0.9585
14.7355	0.96572	2.1935	0.067576	-0.78523	0.21453	2.6378	-19.189	768.1078	-61.2655	297.555	73.9456	862.5087	-0.0592	0.0182	-0.0073	-0.0462	0.0165	0.9585
14.749	0.90386	2.4442	0.067979	-0.85859	0.17413	2.9293	-18.4168	772.9338	-63.0823	297.8965	75	865.536	-0.0592	0.0182	-0.0073	-0.0462	0.0165	0.9585
14.7625	0.82925	2.6025	0.070266	-0.89676	0.12868	3.1072	-17.3355	777.2862	-64.9301	298.0843	76.0042	867.874	-0.0592	0.0182	-0.0073	-0.0462	0.0165	0.9585
14.776	0.74122	2.6693	0.073363	-0.90218	0.083494	3.1681	-15.9628	780.466	-66.5295	297.9279	76.6799	868.7241	-0.0592	0.0182	-0.0073	-0.0462	0.0165	0.9585
14.7895	0.63269	2.6114	0.084503	-0.86685	0.03349	3.0845	-14.3396	782.0139	-67.6556	297.3117	76.8149	867.5794	-0.0592	0.0182	-0.0073	-0.0462	0.0165	0.9585
14.803	0.50981	2.3741	0.10403	-0.77408	-0.021258	2.7915	-12.5282	781.6586	-68.1766	296.1716	76.2994	864.1611	-0.0592	0.0182	-0.0073	-0.0462	0.0165	0.9585
14.8165	0.36476	1.8891	0.13543	-0.60275	-0.087987	2.2069	-10.5955	779.2879	-68.0507	294.4832	75.1167	858.373	-0.0592	0.0182	-0.0073	-0.0462	0.0165	0.9585
14.83	0.2062	1.0731	0.17996	-0.32522	-0.17094	1.2311	-8.5876	774.9886	-67.3171	292.2747	73.3266	850.343	-0.0592	0.0182	-0.0073	-0.0462	0.0165	0.9585
14.8435	0.053776	-0.14434	0.22687	0.084391	-0.25654	-0.21985	-6.5385	769.0486	-66.0961	289.6331	71.0643	840.4225	-0.0592	0.0182	-0.0073	-0.0462	0.0165	0.9585
14.857	-0.064038	-1.7957	0.27199	0.64091	-0.32899	-2.1861	-4.4747	761.941	-64.5617	286.7068	68.5135	829.1573	-0.0592	0.0182	-0.0073	-0.0462	0.0165	0.9585
14.8705	-0.097209	-3.8357	0.29055	1.3298	-0.34593	-4.615	-2.3966	754.3337	-62.914	283.7122	65.8715	817.2912	-0.0592	0.0182	-0.0073	-0.0462	0.0165	0.9585
14.884	0.018708	-6.0801	0.26476	2.0872	-0.26029	-7.2816	-0.23563	746.9609	-61.3536	280.8932	63.313	805.6095	-0.0592	0.0182	-0.0073	-0.0462	0.0165	0.9585
14.8975	0.38601	-8.1123	0.15888	2.7704	0.0024205	-9.699	2.1176	740.4726	-60.0589	278.4678	60.9715	794.7843	-0.0592	0.0182	-0.0073	-0.0462	0.0165	0.9585
14.911	1.1121	-9.2198	-0.058328	3.137	0.51511	-11.0195	4.8012	735.3096	-59.1598	276.5815	58.9162	785.2596	-0.0592	0.0182	-0.0073	-0.0462	0.0165	0.9585
14.9245	2.3189	-8.3347	-0.43217	2.8211	1.3645	-9.964	7.934	731.6135	-58.7326	275.2689	57.1704	777.1815	-0.0592	0.0182	-0.0073	-0.0462	0.0165	0.9585
14.938	4.098	-3.9865	-0.98758	1.3183	2.6143	-4.768	11.54	729.138	-58.778	274.4197	55.7145	770.3272	-0.0592	0.0182	-0.0073	-0.0462	0.0165	0.9585
14.9515	6.4788	5.664	-1.7334	-2.0016	4.2864	6.7649	15.5054	727.196	-59.2297	273.7565	54.5241	764.0649	-0.0592	0.0182	-0.0073	-0.0462	0.0165	0.9585
14.965	9.3575	22.6262	-2.6345	-7.829	6.3027	27.0364	19.5854	724.6723	-59.9425	272.8388	53.5509	757.3796	-0.0592	0.0182	-0.0073	-0.0462	0.0165	0.9585
14.9785	12.398	48.7219	-3.5909	-16.7861	8.4286	58.2245	23.4552	720.0686	-60.7026	271.084	52.7096	748.9004	-0.0592	0.0182	-0.0073	-0.0462	0.0165	0.9585
